<svg id="Layer_1" data-name="Layer 1" xmlns="http://www.w3.org/2000/svg" xmlns:xlink="http://www.w3.org/1999/xlink" viewBox="0 0 64 64"><defs><style>.cls-1{fill:#1d1d1b;}.cls-2{fill:url(#linear-gradient);}</style><linearGradient id="linear-gradient" x1="22.78" y1="16.64" x2="41.22" y2="16.64" gradientUnits="userSpaceOnUse"><stop offset="0" stop-color="#ededed"/><stop offset="1" stop-color="#b2b2b2"/></linearGradient></defs><polyline class="cls-1" points="32 41.7 33.78 41.7 33.78 33.14 43.27 27.13 43.27 2.63 44.5 1.4 43.26 0.16 32 0.16 20.74 0.16 19.5 1.4 20.73 2.63 20.73 27.13 30.22 33.14 30.23 41.7 32.01 41.7"/><polygon class="cls-2" points="32 2.15 22.78 2.15 22.78 25.39 32 31.13 41.22 25.39 41.22 2.15 32 2.15"/><polygon class="cls-1" points="32 23.63 31.27 23.63 30.28 22.64 30.28 21.63 30.78 21.13 30.78 19.63 29.28 19.64 28.77 20.13 27.29 20.13 27.29 18.64 28.28 17.65 30 17.65 30 8.66 32 6.66 33.99 8.66 33.99 17.65 35.72 17.65 36.71 18.64 36.71 20.13 35.23 20.13 34.72 19.64 33.22 19.63 33.22 21.13 33.72 21.63 33.72 22.64 32.73 23.63 32 23.63"/></svg>