<svg id="Layer_1" data-name="Layer 1" xmlns="http://www.w3.org/2000/svg" xmlns:xlink="http://www.w3.org/1999/xlink" viewBox="0 0 64 137.66"><defs><style>.cls-1{fill:#1d1d1b;}.cls-2{fill:url(#linear-gradient);}</style><linearGradient id="linear-gradient" x1="23.77" y1="71.02" x2="42.21" y2="71.02" gradientUnits="userSpaceOnUse"><stop offset="0" stop-color="#ededed"/><stop offset="1" stop-color="#b2b2b2"/></linearGradient></defs><polyline class="cls-1" points="32.99 96.09 34.77 96.09 34.77 87.53 44.26 81.52 44.26 57.02 45.49 55.78 44.25 54.54 32.99 54.54 21.73 54.54 20.49 55.78 21.72 57.02 21.72 81.52 31.21 87.53 31.22 96.09 33 96.09"/><polygon class="cls-2" points="32.99 56.53 23.77 56.53 23.77 79.77 32.99 85.51 42.21 79.77 42.21 56.53 32.99 56.53"/><polygon class="cls-1" points="32.99 78.02 32.26 78.02 31.27 77.03 31.27 76.01 31.77 75.51 31.77 74.01 30.27 74.03 29.76 74.51 28.28 74.51 28.28 73.03 29.27 72.04 31 72.04 31 63.04 32.99 61.05 34.98 63.04 34.98 72.04 36.71 72.04 37.7 73.03 37.7 74.51 36.22 74.51 35.71 74.03 34.21 74.01 34.21 75.51 34.71 76.01 34.71 77.03 33.72 78.02 32.99 78.02"/></svg>