<svg id="Layer_1" data-name="Layer 1" xmlns="http://www.w3.org/2000/svg" xmlns:xlink="http://www.w3.org/1999/xlink" viewBox="0 0 64 64"><defs><style>.cls-1{fill:url(#linear-gradient);}.cls-2{fill:#3f3f3f;opacity:0.4;}.cls-3{fill:#565555;}.cls-4{fill:#1f1f1f;}.cls-5{fill:#131313;}.cls-6{fill:#484848;}.cls-7{fill:#202020;}.cls-8{fill:#333;}</style><linearGradient id="linear-gradient" x1="65.29" y1="12.52" x2="65.29" y2="67.94" gradientTransform="translate(-4.43 -35.48) rotate(30)" gradientUnits="userSpaceOnUse"><stop offset="0" stop-color="#ededed"/><stop offset="1" stop-color="#b2b2b2"/></linearGradient></defs><polygon class="cls-1" points="59.71 16 32 0 4.29 16 4.29 48 32 64 59.71 48 59.71 16"/><ellipse class="cls-2" cx="33" cy="38.53" rx="13.76" ry="2.27"/><polygon class="cls-3" points="33 20.45 26.21 26.3 33 26.3 33 20.45"/><path class="cls-4" d="M26.22,26.3s-.52,0-.52.48v1.95H33V26.3Z"/><path class="cls-5" d="M39.78,26.3s.52,0,.52.48v1.95H33V26.3Z"/><polygon class="cls-6" points="33 20.45 39.79 26.3 33 26.3 33 20.45"/><path class="cls-3" d="M25.7,28.73s-1.12,6.39-3.42,9.8H33v-9.8Z"/><path class="cls-6" d="M40.28,28.73s1.12,6.39,3.42,9.8H33v-9.8Z"/><path class="cls-7" d="M34.94,28.73s.85,6.07,3,9.8H33v-9.8Z"/><path class="cls-8" d="M31,28.73s-.85,6.07-3,9.8H33v-9.8Z"/></svg>