<svg id="Layer_1" data-name="Layer 1" xmlns="http://www.w3.org/2000/svg" viewBox="0 0 64 64"><defs><style>.cls-1{fill:#3f3f3f;opacity:0.4;}.cls-2{fill:#565555;}.cls-3{fill:#1f1f1f;}.cls-4{fill:#131313;}.cls-5{fill:#484848;}.cls-6{fill:#202020;}.cls-7{fill:#333;}</style></defs><ellipse class="cls-1" cx="33" cy="38.53" rx="13.76" ry="2.27"/><polygon class="cls-2" points="33 20.45 26.21 26.3 33 26.3 33 20.45"/><path class="cls-3" d="M26.22,26.3s-.52,0-.52.48v1.95H33V26.3Z"/><path class="cls-4" d="M39.78,26.3s.52,0,.52.48v1.95H33V26.3Z"/><polygon class="cls-5" points="33 20.45 39.79 26.3 33 26.3 33 20.45"/><path class="cls-2" d="M25.7,28.73s-1.12,6.39-3.42,9.8H33v-9.8Z"/><path class="cls-5" d="M40.28,28.73s1.12,6.39,3.42,9.8H33v-9.8Z"/><path class="cls-6" d="M34.94,28.73s.85,6.07,3,9.8H33v-9.8Z"/><path class="cls-7" d="M31,28.73s-.85,6.07-3,9.8H33v-9.8Z"/></svg>