<svg id="Layer_1" data-name="Layer 1" xmlns="http://www.w3.org/2000/svg" viewBox="0 0 64 64"><defs><style>.cls-1{fill:#3f3f3f;opacity:0.4;}.cls-2{fill:#333;}.cls-3{fill:#565555;}.cls-4{fill:#2f2f30;}.cls-5{fill:#605f5f;}.cls-6{fill:#424242;}.cls-7{fill:#212121;}.cls-8{fill:#1d1d1d;}.cls-9{fill:#484848;}</style></defs><ellipse class="cls-1" cx="32" cy="46.42" rx="27.37" ry="4.51"/><polygon class="cls-2" points="32.05 13.37 30.54 13.37 30.54 15.36 29.01 15.36 29.01 13.37 26.48 13.37 26.48 15.36 24.94 15.36 24.94 13.37 22.95 13.37 22.95 17.39 23.97 18.41 32.05 18.41 32.05 13.37"/><rect class="cls-3" x="23.97" y="18.41" width="8.08" height="13.57"/><polygon class="cls-4" points="32.03 28.54 28.98 28.54 28.98 30.53 26.93 30.53 26.93 28.54 23.95 28.54 23.95 30.53 21.39 30.53 21.39 28.54 18.4 28.54 18.4 32.56 19.44 33.58 32.03 33.58 32.03 28.54"/><rect class="cls-5" x="20.41" y="33.58" width="11.61" height="13.63"/><rect class="cls-6" x="15.37" y="38.65" width="5.04" height="8.56"/><rect class="cls-3" x="7.76" y="29.52" width="7.61" height="17.69"/><polygon class="cls-7" points="15.37 36.1 16.84 36.1 16.84 37.11 18.4 37.11 18.4 36.1 20.41 36.1 20.41 38.65 15.37 38.65 15.37 36.1"/><polygon class="cls-7" points="11.57 21.97 16.34 29.52 6.79 29.52 11.57 21.97"/><polygon class="cls-8" points="7.76 29.52 6.79 29.52 7.76 30.5 7.76 29.52"/><polygon class="cls-8" points="15.37 29.52 16.34 29.52 15.38 30.5 15.37 29.52"/><rect class="cls-2" x="27" y="21.97" width="0.99" height="3.52"/><rect class="cls-2" x="25.3" y="36.61" width="0.99" height="3.52"/><path class="cls-2" d="M10.3,36.61h2.52V34.09s0-1-1.26-1-1.26,1-1.26,1Z"/><polygon class="cls-7" points="32.05 13.37 33.55 13.37 33.55 15.36 35.08 15.36 35.08 13.37 37.61 13.37 37.61 15.36 39.15 15.36 39.15 13.37 41.15 13.37 41.15 17.39 40.12 18.41 32.05 18.41 32.05 13.37"/><rect class="cls-9" x="32.05" y="18.41" width="8.08" height="13.57"/><polygon class="cls-7" points="32.03 28.54 35.08 28.54 35.08 30.53 37.14 30.53 37.14 28.54 40.13 28.54 40.13 30.53 42.7 30.53 42.7 28.54 45.69 28.54 45.69 32.56 44.65 33.58 32.03 33.58 32.03 28.54"/><rect class="cls-3" x="32.02" y="33.58" width="11.66" height="13.63"/><rect class="cls-6" x="43.68" y="38.65" width="5.04" height="8.56"/><rect class="cls-3" x="48.72" y="29.52" width="7.61" height="17.69"/><polygon class="cls-7" points="48.72 36.1 47.25 36.1 47.25 37.11 45.69 37.11 45.69 36.1 43.68 36.1 43.68 38.65 48.72 38.65 48.72 36.1"/><polygon class="cls-7" points="52.52 21.97 47.75 29.52 57.31 29.52 52.52 21.97"/><polygon class="cls-8" points="56.33 29.52 57.31 29.52 56.33 30.5 56.33 29.52"/><polygon class="cls-8" points="48.72 29.52 47.75 29.52 48.72 30.5 48.72 29.52"/><rect class="cls-2" x="31.57" y="21.97" width="0.99" height="3.52"/><rect class="cls-2" x="36.1" y="21.97" width="0.99" height="3.52"/><rect class="cls-2" x="31.55" y="35.62" width="0.99" height="3.52"/><rect class="cls-2" x="37.8" y="36.61" width="0.99" height="3.52"/><path class="cls-2" d="M53.79,36.61H51.27V34.09s0-1,1.26-1,1.26,1,1.26,1Z"/><path class="cls-2" d="M32,47.21h-2V44.09a2,2,0,0,1,2-2Z"/><path class="cls-7" d="M32,47.21H34V44.09a2,2,0,0,0-1.95-2Z"/></svg>