<svg id="Layer_1" data-name="Layer 1" xmlns="http://www.w3.org/2000/svg" viewBox="0 0 64 64"><defs><style>.cls-1{fill:#3f3f3f;opacity:0.4;}.cls-2{fill:#4d4c4c;}.cls-3{fill:#5a5a5a;}.cls-4{fill:#272727;}</style></defs><ellipse class="cls-1" cx="32.66" cy="28.84" rx="7.91" ry="1.31"/><polygon class="cls-2" points="32.66 6.67 38.48 16.23 36.48 16.23 38.95 20.86 37.03 20.86 39.45 25.27 32.66 25.27 32.66 6.67"/><polygon class="cls-3" points="32.66 6.67 26.84 16.23 28.84 16.23 26.38 20.86 28.29 20.86 25.87 25.27 32.66 25.27 32.66 6.67"/><rect class="cls-4" x="31.18" y="25.27" width="2.97" height="3.57"/><ellipse class="cls-1" cx="43.84" cy="46.36" rx="7.91" ry="1.31"/><polygon class="cls-2" points="43.84 24.19 49.66 33.75 47.66 33.75 50.13 38.38 48.21 38.38 50.63 42.79 43.84 42.79 43.84 24.19"/><polygon class="cls-3" points="43.84 24.19 38.02 33.75 40.02 33.75 37.56 38.38 39.47 38.38 37.05 42.79 43.84 42.79 43.84 24.19"/><rect class="cls-4" x="42.35" y="42.79" width="2.97" height="3.57"/><ellipse class="cls-1" cx="15.95" cy="43.09" rx="7.91" ry="1.31"/><polygon class="cls-2" points="15.95 20.93 21.77 30.48 19.77 30.48 22.23 35.11 20.32 35.11 22.74 39.53 15.95 39.53 15.95 20.93"/><polygon class="cls-3" points="15.95 20.93 10.13 30.48 12.13 30.48 9.67 35.11 11.58 35.11 9.16 39.53 15.95 39.53 15.95 20.93"/><rect class="cls-4" x="14.46" y="39.53" width="2.97" height="3.57"/></svg>