<svg id="Layer_1" data-name="Layer 1" xmlns="http://www.w3.org/2000/svg" viewBox="0 0 64 64"><defs><style>.cls-1{fill:#f39200;}.cls-2{fill:#dd7f0b;}</style></defs><path class="cls-1" d="M5.29,47.41V16.56L32,1.14,58.71,16.56V47.41L32,62.83ZM25.16,28v7.91l6.84,4,6.84-4V28l-6.84-4Z"/><path class="cls-2" d="M32,2.29,57.71,17.14V46.83L32,61.67,6.29,46.83V17.14L32,2.29M32,41l1-.57,5.85-3.38,1-.58V27.45l-1-.57L33,23.5l-1-.57-1,.57-5.85,3.38-1,.57v9.06l1,.58L31,40.47,32,41M32,0,4.29,16V48L32,64,59.71,48V16L32,0Zm0,38.75-5.85-3.37V28.61L32,25.23l5.85,3.38v6.75L32,38.73Z"/></svg>