<svg id="Layer_1" data-name="Layer 1" xmlns="http://www.w3.org/2000/svg" viewBox="0 0 64 64"><defs><style>.cls-1{fill:#3f3f3f;opacity:0.4;}.cls-2{fill:#333;}.cls-3{fill:#454444;}.cls-4{fill:#5d5d5d;}.cls-5{fill:#676767;}.cls-6{fill:#565555;}</style></defs><ellipse class="cls-1" cx="32" cy="46.05" rx="27.02" ry="4.46"/><polygon class="cls-2" points="58 46.33 37.5 7.53 37.5 25.2 30.9 11.81 30.9 46.33 58 46.33"/><polygon class="cls-3" points="51.28 21.7 26.65 46.33 51.28 46.33 51.28 21.7"/><polygon class="cls-4" points="55.69 37 55.69 46.33 51.28 46.33 51.28 39.97 55.69 37"/><polygon class="cls-5" points="37.5 15.31 33.23 16.54 37.5 25.2 37.5 15.31"/><polygon class="cls-6" points="23.48 44.35 23.48 11.81 7.23 44.35 23.48 44.35"/><polyline class="cls-2" points="27.91 36.85 27.91 45.07 26.65 46.33 15.74 46.33 27.91 36.85"/><polygon class="cls-6" points="27.91 45.07 30.9 42.08 30.9 29.81 27.91 25.86 27.91 45.07"/><polygon class="cls-3" points="27.91 25.86 23.48 20.25 23.48 40.3 27.91 36.85 27.91 25.86"/><polygon class="cls-5" points="23.48 19.16 30.9 17.32 30.9 29.81 27.91 25.86 23.48 20.25 23.48 19.16"/></svg>