<svg id="Layer_1" data-name="Layer 1" xmlns="http://www.w3.org/2000/svg" xmlns:xlink="http://www.w3.org/1999/xlink" viewBox="0 0 64 64"><defs><style>.cls-1{fill:url(#linear-gradient);}.cls-2{fill:#3f3f3f;opacity:0.4;}.cls-3{fill:#333;}.cls-4{fill:#454444;}.cls-5{fill:#5d5d5d;}.cls-6{fill:#676767;}.cls-7{fill:#565555;}</style><linearGradient id="linear-gradient" x1="-12.37" y1="38.68" x2="-12.37" y2="94.11" gradientTransform="translate(75.91 -19.32) rotate(30)" gradientUnits="userSpaceOnUse"><stop offset="0" stop-color="#ededed"/><stop offset="1" stop-color="#b2b2b2"/></linearGradient></defs><polygon class="cls-1" points="59.71 16 32 0 4.29 16 4.29 48 32 64 59.71 48 59.71 16"/><ellipse class="cls-2" cx="32" cy="46.05" rx="27.02" ry="4.46"/><polygon class="cls-3" points="58 46.33 37.5 7.53 37.5 25.2 30.9 11.81 30.9 46.33 58 46.33"/><polygon class="cls-4" points="51.28 21.7 26.65 46.33 51.28 46.33 51.28 21.7"/><polygon class="cls-5" points="55.69 37 55.69 46.33 51.28 46.33 51.28 39.97 55.69 37"/><polygon class="cls-6" points="37.5 15.31 33.23 16.54 37.5 25.2 37.5 15.31"/><polygon class="cls-7" points="23.48 44.35 23.48 11.81 7.23 44.35 23.48 44.35"/><polyline class="cls-3" points="27.91 36.85 27.91 45.07 26.65 46.33 15.74 46.33 27.91 36.85"/><polygon class="cls-7" points="27.91 45.07 30.9 42.08 30.9 29.81 27.91 25.86 27.91 45.07"/><polygon class="cls-4" points="27.91 25.86 23.48 20.25 23.48 40.3 27.91 36.85 27.91 25.86"/><polygon class="cls-6" points="23.48 19.16 30.9 17.32 30.9 29.81 27.91 25.86 23.48 20.25 23.48 19.16"/></svg>