<svg id="Layer_1" data-name="Layer 1" xmlns="http://www.w3.org/2000/svg" xmlns:xlink="http://www.w3.org/1999/xlink" viewBox="0 0 64 64"><defs><style>.cls-1{fill:url(#linear-gradient);}.cls-2{fill:#3f3f3f;opacity:0.4;}.cls-3{fill:#333;}.cls-4{fill:#545454;}.cls-5{fill:#605f5f;}.cls-6{fill:#212121;}.cls-7{fill:#3c3c3c;}.cls-8{fill:#565555;}</style><linearGradient id="linear-gradient" x1="13.37" y1="-13.23" x2="13.37" y2="42.2" gradientTransform="matrix(0.87, 0.5, -0.5, 0.87, 27.66, 12.77)" gradientUnits="userSpaceOnUse"><stop offset="0" stop-color="#ededed"/><stop offset="1" stop-color="#b2b2b2"/></linearGradient></defs><polygon class="cls-1" points="59.71 16 32 0 4.29 16 4.29 48 32 64 59.71 48 59.71 16"/><ellipse class="cls-2" cx="31.91" cy="43.82" rx="11.16" ry="1.84"/><polygon class="cls-3" points="31.91 18.64 30.46 18.64 30.46 21.04 28.54 21.04 28.54 18.64 25.13 18.64 25.13 21.04 23.18 21.04 23.18 18.64 20.75 18.64 20.75 22.5 22.22 23.96 31.91 23.96 31.91 18.64"/><polygon class="cls-4" points="24.64 23.96 24.64 25.9 22.71 23.96 24.64 23.96"/><rect class="cls-5" x="24.64" y="23.96" width="7.27" height="19.86"/><polygon class="cls-6" points="31.91 18.64 33.37 18.64 33.37 21.04 35.29 21.04 35.29 18.64 38.69 18.64 38.69 21.04 40.65 21.04 40.65 18.64 43.07 18.64 43.07 22.5 41.6 23.96 31.91 23.96 31.91 18.64"/><polygon class="cls-7" points="39.19 23.96 39.19 25.9 41.12 23.96 39.19 23.96"/><rect class="cls-8" x="31.91" y="23.96" width="7.27" height="19.86"/><path class="cls-6" d="M31.91,28.81h1.7a.72.72,0,0,1,.72.72v3.4a.72.72,0,0,1-.72.72h-1.7Z"/><path class="cls-3" d="M31.91,28.81h-1.7a.71.71,0,0,0-.71.72v3.4a.71.71,0,0,0,.71.72h1.7Z"/><path class="cls-3" d="M31.91,43.82H29.5V40a2.41,2.41,0,0,1,2.41-2.42Z"/><path class="cls-6" d="M31.93,43.82h2.41V40a2.41,2.41,0,0,0-2.41-2.42Z"/></svg>