<svg id="Layer_1" data-name="Layer 1" xmlns="http://www.w3.org/2000/svg" viewBox="0 0 64 64"><defs><style>.cls-1{fill:#3f3f3f;opacity:0.4;}.cls-2{fill:#333;}.cls-3{fill:#212121;}.cls-4{fill:#605f5f;}.cls-5{fill:#565555;}</style></defs><ellipse class="cls-1" cx="17.18" cy="24.95" rx="5.55" ry="0.91"/><polygon class="cls-2" points="17.18 13.49 12.69 17.96 17.18 17.96 17.18 13.49"/><polygon class="cls-3" points="17.18 13.49 21.68 17.96 17.18 17.96 17.18 13.49"/><rect class="cls-4" x="13.7" y="17.96" width="3.49" height="6.99"/><rect class="cls-5" x="17.18" y="17.96" width="3.49" height="6.99"/><rect class="cls-2" x="16.19" y="19.46" width="0.99" height="1.49"/><rect class="cls-3" x="17.18" y="19.46" width="0.99" height="1.49"/><path class="cls-3" d="M17.18,22.46c.87,0,1.51.42,1.51,1V25H17.18Z"/><path class="cls-2" d="M17.18,22.46c-.86,0-1.51.42-1.51,1V25h1.51Z"/><ellipse class="cls-1" cx="34.9" cy="34.37" rx="5.55" ry="0.91"/><polygon class="cls-2" points="34.9 22.91 30.41 27.38 34.9 27.38 34.9 22.91"/><polygon class="cls-3" points="34.9 22.91 39.4 27.38 34.9 27.38 34.9 22.91"/><rect class="cls-4" x="31.42" y="27.38" width="3.49" height="6.99"/><rect class="cls-5" x="34.9" y="27.38" width="3.49" height="6.99"/><rect class="cls-2" x="33.91" y="28.89" width="0.99" height="1.49"/><rect class="cls-3" x="34.9" y="28.89" width="0.99" height="1.49"/><path class="cls-3" d="M34.9,31.88c.87,0,1.51.43,1.51,1v1.46H34.9Z"/><path class="cls-2" d="M34.9,31.88c-.86,0-1.5.43-1.5,1v1.46h1.5Z"/><ellipse class="cls-1" cx="49.21" cy="42.96" rx="5.55" ry="0.91"/><polygon class="cls-2" points="49.21 31.5 44.72 35.97 49.21 35.97 49.21 31.5"/><polygon class="cls-3" points="49.21 31.5 53.7 35.97 49.21 35.97 49.21 31.5"/><rect class="cls-4" x="45.72" y="35.97" width="3.49" height="6.99"/><rect class="cls-5" x="49.21" y="35.97" width="3.49" height="6.99"/><rect class="cls-2" x="48.22" y="37.47" width="0.99" height="1.49"/><rect class="cls-3" x="49.21" y="37.47" width="0.99" height="1.49"/><path class="cls-3" d="M49.21,40.47c.86,0,1.5.42,1.5,1V43h-1.5Z"/><path class="cls-2" d="M49.21,40.47c-.87,0-1.51.42-1.51,1V43h1.51Z"/><ellipse class="cls-1" cx="24.64" cy="50.02" rx="5.55" ry="0.91"/><polygon class="cls-2" points="24.64 38.57 20.15 43.03 24.64 43.03 24.64 38.57"/><polygon class="cls-3" points="24.64 38.57 29.13 43.03 24.64 43.03 24.64 38.57"/><rect class="cls-4" x="21.15" y="43.03" width="3.49" height="6.99"/><rect class="cls-5" x="24.64" y="43.03" width="3.49" height="6.99"/><rect class="cls-2" x="23.65" y="44.54" width="0.99" height="1.49"/><rect class="cls-3" x="24.64" y="44.54" width="0.99" height="1.49"/><path class="cls-3" d="M24.64,47.53c.87,0,1.51.43,1.51,1V50H24.64Z"/><path class="cls-2" d="M24.64,47.53c-.87,0-1.51.43-1.51,1V50h1.51Z"/><ellipse class="cls-1" cx="39.17" cy="18.21" rx="5.55" ry="0.91"/><polygon class="cls-2" points="39.17 6.76 34.67 11.23 39.17 11.23 39.17 6.76"/><polygon class="cls-3" points="39.17 6.76 43.66 11.23 39.17 11.23 39.17 6.76"/><rect class="cls-4" x="35.68" y="11.23" width="3.49" height="6.99"/><rect class="cls-5" x="39.17" y="11.23" width="3.49" height="6.99"/><rect class="cls-2" x="38.18" y="12.73" width="0.99" height="1.49"/><rect class="cls-3" x="39.17" y="12.73" width="0.99" height="1.49"/><path class="cls-3" d="M39.17,15.73c.86,0,1.51.42,1.51,1v1.46H39.17Z"/><path class="cls-2" d="M39.17,15.73c-.87,0-1.51.42-1.51,1v1.46h1.51Z"/></svg>