<svg id="Layer_1" data-name="Layer 1" xmlns="http://www.w3.org/2000/svg" viewBox="0 0 64 64"><defs><style>.cls-1{fill:#3f3f3f;opacity:0.4;}.cls-2{fill:#333;}.cls-3{fill:#212121;}.cls-4{fill:#605f5f;}.cls-5{fill:#565555;}</style></defs><ellipse class="cls-1" cx="29.7" cy="48.2" rx="5.55" ry="0.91"/><polygon class="cls-2" points="29.7 36.74 25.21 41.21 29.7 41.21 29.7 36.74"/><polygon class="cls-3" points="29.7 36.74 34.2 41.21 29.7 41.21 29.7 36.74"/><rect class="cls-4" x="26.22" y="41.21" width="3.49" height="6.99"/><rect class="cls-5" x="29.7" y="41.21" width="3.49" height="6.99"/><rect class="cls-2" x="28.71" y="42.71" width="0.99" height="1.49"/><rect class="cls-3" x="29.7" y="42.71" width="0.99" height="1.49"/><path class="cls-3" d="M29.7,45.71c.87,0,1.51.43,1.51,1V48.2H29.7Z"/><path class="cls-2" d="M29.7,45.71c-.86,0-1.5.43-1.5,1V48.2h1.5Z"/><ellipse class="cls-1" cx="45.77" cy="30.58" rx="5.55" ry="0.91"/><polygon class="cls-2" points="45.77 19.13 41.28 23.59 45.77 23.59 45.77 19.13"/><polygon class="cls-3" points="45.77 19.13 50.26 23.59 45.77 23.59 45.77 19.13"/><rect class="cls-4" x="42.29" y="23.59" width="3.49" height="6.99"/><rect class="cls-5" x="45.77" y="23.59" width="3.49" height="6.99"/><rect class="cls-2" x="44.78" y="25.1" width="0.99" height="1.49"/><rect class="cls-3" x="45.77" y="25.1" width="0.99" height="1.49"/><path class="cls-3" d="M45.77,28.09c.87,0,1.51.43,1.51,1v1.46H45.77Z"/><path class="cls-2" d="M45.77,28.09c-.87,0-1.51.43-1.51,1v1.46h1.51Z"/><ellipse class="cls-1" cx="21.2" cy="24.4" rx="5.55" ry="0.91"/><polygon class="cls-2" points="21.2 12.94 16.71 17.41 21.2 17.41 21.2 12.94"/><polygon class="cls-3" points="21.2 12.94 25.7 17.41 21.2 17.41 21.2 12.94"/><rect class="cls-4" x="17.72" y="17.41" width="3.49" height="6.99"/><rect class="cls-5" x="21.2" y="17.41" width="3.49" height="6.99"/><rect class="cls-2" x="20.21" y="18.91" width="0.99" height="1.49"/><rect class="cls-3" x="21.2" y="18.91" width="0.99" height="1.49"/><path class="cls-3" d="M21.2,21.91c.87,0,1.51.42,1.51,1V24.4H21.2Z"/><path class="cls-2" d="M21.2,21.91c-.86,0-1.5.42-1.5,1V24.4h1.5Z"/></svg>