<svg id="Layer_1" data-name="Layer 1" xmlns="http://www.w3.org/2000/svg" xmlns:xlink="http://www.w3.org/1999/xlink" viewBox="0 0 64 64"><defs><style>.cls-1{fill:url(#linear-gradient);}.cls-2{fill:#3f3f3f;opacity:0.4;}.cls-3{fill:#333;}.cls-4{fill:#212121;}.cls-5{fill:#605f5f;}.cls-6{fill:#565555;}</style><linearGradient id="linear-gradient" x1="39.54" y1="64.43" x2="39.54" y2="119.86" gradientTransform="matrix(0.87, 0.5, -0.5, 0.87, 43.83, -67.57)" gradientUnits="userSpaceOnUse"><stop offset="0" stop-color="#ededed"/><stop offset="1" stop-color="#b2b2b2"/></linearGradient></defs><polygon class="cls-1" points="59.71 16 32 0 4.29 16 4.29 48 32 64 59.71 48 59.71 16"/><ellipse class="cls-2" cx="28.16" cy="28.09" rx="5.55" ry="0.91"/><polygon class="cls-3" points="28.16 16.64 23.67 21.11 28.16 21.11 28.16 16.64"/><polygon class="cls-4" points="28.16 16.64 32.66 21.11 28.16 21.11 28.16 16.64"/><rect class="cls-5" x="24.68" y="21.11" width="3.49" height="6.99"/><rect class="cls-6" x="28.16" y="21.11" width="3.49" height="6.99"/><rect class="cls-3" x="27.17" y="22.61" width="0.99" height="1.49"/><rect class="cls-4" x="28.16" y="22.61" width="0.99" height="1.49"/><path class="cls-4" d="M28.16,25.61c.87,0,1.51.42,1.51,1v1.46H28.16Z"/><path class="cls-3" d="M28.16,25.61c-.86,0-1.5.42-1.5,1v1.46h1.5Z"/><ellipse class="cls-2" cx="47.14" cy="35.15" rx="5.55" ry="0.91"/><polygon class="cls-3" points="47.15 23.7 42.65 28.16 47.15 28.16 47.15 23.7"/><polygon class="cls-4" points="47.15 23.7 51.64 28.16 47.15 28.16 47.15 23.7"/><rect class="cls-5" x="43.66" y="28.16" width="3.49" height="6.99"/><rect class="cls-6" x="47.14" y="28.16" width="3.49" height="6.99"/><rect class="cls-3" x="46.15" y="29.67" width="0.99" height="1.49"/><rect class="cls-4" x="47.14" y="29.67" width="0.99" height="1.49"/><path class="cls-4" d="M47.14,32.67c.87,0,1.51.42,1.51,1v1.46H47.14Z"/><path class="cls-3" d="M47.14,32.67c-.86,0-1.5.42-1.5,1v1.46h1.5Z"/><ellipse class="cls-2" cx="37.66" cy="50.64" rx="5.55" ry="0.91"/><polygon class="cls-3" points="37.66 39.19 33.17 43.66 37.66 43.66 37.66 39.19"/><polygon class="cls-4" points="37.66 39.19 42.15 43.66 37.66 43.66 37.66 39.19"/><rect class="cls-5" x="34.17" y="43.65" width="3.49" height="6.99"/><rect class="cls-6" x="37.66" y="43.65" width="3.49" height="6.99"/><rect class="cls-3" x="36.67" y="45.16" width="0.99" height="1.49"/><rect class="cls-4" x="37.66" y="45.16" width="0.99" height="1.49"/><path class="cls-4" d="M37.66,48.16c.87,0,1.51.42,1.51,1v1.46H37.66Z"/><path class="cls-3" d="M37.66,48.16c-.87,0-1.51.42-1.51,1v1.46h1.51Z"/><ellipse class="cls-2" cx="16.43" cy="39.44" rx="5.55" ry="0.91"/><polygon class="cls-3" points="16.43 27.98 11.94 32.45 16.43 32.45 16.43 27.98"/><polygon class="cls-4" points="16.43 27.98 20.92 32.45 16.43 32.45 16.43 27.98"/><rect class="cls-5" x="12.94" y="32.45" width="3.49" height="6.99"/><rect class="cls-6" x="16.43" y="32.45" width="3.49" height="6.99"/><rect class="cls-3" x="15.44" y="33.95" width="0.99" height="1.49"/><rect class="cls-4" x="16.43" y="33.95" width="0.99" height="1.49"/><path class="cls-4" d="M16.43,37c.87,0,1.51.42,1.51,1v1.47H16.43Z"/><path class="cls-3" d="M16.43,37c-.87,0-1.51.42-1.51,1v1.47h1.51Z"/><ellipse class="cls-2" cx="35.68" cy="16.23" rx="5.55" ry="0.91"/><polygon class="cls-3" points="35.68 4.77 31.19 9.24 35.68 9.24 35.68 4.77"/><polygon class="cls-4" points="35.68 4.77 40.17 9.24 35.68 9.24 35.68 4.77"/><rect class="cls-5" x="32.2" y="9.24" width="3.49" height="6.99"/><rect class="cls-6" x="35.68" y="9.24" width="3.49" height="6.99"/><rect class="cls-3" x="34.69" y="10.74" width="0.99" height="1.49"/><rect class="cls-4" x="35.68" y="10.74" width="0.99" height="1.49"/><path class="cls-4" d="M35.68,13.74c.87,0,1.51.42,1.51,1v1.46H35.68Z"/><path class="cls-3" d="M35.68,13.74c-.87,0-1.51.42-1.51,1v1.46h1.51Z"/></svg>