<svg id="Layer_1" data-name="Layer 1" xmlns="http://www.w3.org/2000/svg" viewBox="0 0 64 64"><defs><style>.cls-1{fill:#3f3f3f;opacity:0.4;}.cls-2{fill:#333;}.cls-3{fill:#212121;}.cls-4{fill:#605f5f;}.cls-5{fill:#565555;}</style></defs><ellipse class="cls-1" cx="17.27" cy="30.08" rx="5.55" ry="0.91"/><polygon class="cls-2" points="17.27 18.63 12.78 23.09 17.27 23.09 17.27 18.63"/><polygon class="cls-3" points="17.27 18.63 21.76 23.09 17.27 23.09 17.27 18.63"/><rect class="cls-4" x="13.78" y="23.09" width="3.49" height="6.99"/><rect class="cls-5" x="17.27" y="23.09" width="3.49" height="6.99"/><rect class="cls-2" x="16.28" y="24.6" width="0.99" height="1.49"/><rect class="cls-3" x="17.27" y="24.6" width="0.99" height="1.49"/><path class="cls-3" d="M17.27,27.6c.87,0,1.51.42,1.51,1v1.46H17.27Z"/><path class="cls-2" d="M17.27,27.6c-.87,0-1.51.42-1.51,1v1.46h1.51Z"/><ellipse class="cls-1" cx="45.33" cy="42.93" rx="5.55" ry="0.91"/><polygon class="cls-2" points="45.33 31.47 40.84 35.94 45.33 35.94 45.33 31.47"/><polygon class="cls-3" points="45.33 31.47 49.83 35.94 45.33 35.94 45.33 31.47"/><rect class="cls-4" x="41.85" y="35.94" width="3.49" height="6.99"/><rect class="cls-5" x="45.33" y="35.94" width="3.49" height="6.99"/><rect class="cls-2" x="44.34" y="37.44" width="0.99" height="1.49"/><rect class="cls-3" x="45.33" y="37.44" width="0.99" height="1.49"/><path class="cls-3" d="M45.33,40.44c.87,0,1.51.43,1.51,1v1.46H45.33Z"/><path class="cls-2" d="M45.33,40.44c-.86,0-1.5.43-1.5,1v1.46h1.5Z"/></svg>