<svg id="Layer_1" data-name="Layer 1" xmlns="http://www.w3.org/2000/svg" viewBox="0 0 64 64"><defs><style>.cls-1{fill:#3f3f3f;opacity:0.4;}.cls-2{fill:#333;}.cls-3{fill:#212121;}.cls-4{fill:#605f5f;}.cls-5{fill:#565555;}</style></defs><ellipse class="cls-1" cx="17.49" cy="29.38" rx="5.55" ry="0.91"/><polygon class="cls-2" points="17.49 17.93 13 22.4 17.49 22.4 17.49 17.93"/><polygon class="cls-3" points="17.49 17.93 21.98 22.4 17.49 22.4 17.49 17.93"/><rect class="cls-4" x="14" y="22.4" width="3.49" height="6.99"/><rect class="cls-5" x="17.49" y="22.4" width="3.49" height="6.99"/><rect class="cls-2" x="16.5" y="23.9" width="0.99" height="1.49"/><rect class="cls-3" x="17.49" y="23.9" width="0.99" height="1.49"/><path class="cls-3" d="M17.49,26.9c.87,0,1.51.42,1.51,1v1.46H17.49Z"/><path class="cls-2" d="M17.49,26.9c-.87,0-1.51.42-1.51,1v1.46h1.51Z"/><ellipse class="cls-1" cx="46.51" cy="38.6" rx="5.55" ry="0.91"/><polygon class="cls-2" points="46.51 27.15 42.02 31.61 46.51 31.61 46.51 27.15"/><polygon class="cls-3" points="46.51 27.15 51 31.61 46.51 31.61 46.51 27.15"/><rect class="cls-4" x="43.02" y="31.61" width="3.49" height="6.99"/><rect class="cls-5" x="46.51" y="31.61" width="3.49" height="6.99"/><rect class="cls-2" x="45.52" y="33.12" width="0.99" height="1.49"/><rect class="cls-3" x="46.51" y="33.12" width="0.99" height="1.49"/><path class="cls-3" d="M46.51,36.12c.87,0,1.51.42,1.51,1V38.6H46.51Z"/><path class="cls-2" d="M46.51,36.12c-.87,0-1.51.42-1.51,1V38.6h1.51Z"/><ellipse class="cls-1" cx="24.31" cy="48.25" rx="5.55" ry="0.91"/><polygon class="cls-2" points="24.31 36.79 19.82 41.26 24.31 41.26 24.31 36.79"/><polygon class="cls-3" points="24.31 36.79 28.8 41.26 24.31 41.26 24.31 36.79"/><rect class="cls-4" x="20.83" y="41.26" width="3.49" height="6.99"/><rect class="cls-5" x="24.31" y="41.26" width="3.49" height="6.99"/><rect class="cls-2" x="23.32" y="42.76" width="0.99" height="1.49"/><rect class="cls-3" x="24.31" y="42.76" width="0.99" height="1.49"/><path class="cls-3" d="M24.31,45.76c.87,0,1.51.42,1.51,1v1.46H24.31Z"/><path class="cls-2" d="M24.31,45.76c-.86,0-1.51.42-1.51,1v1.46h1.51Z"/><ellipse class="cls-1" cx="36.47" cy="19.67" rx="5.55" ry="0.91"/><polygon class="cls-2" points="36.47 8.22 31.98 12.69 36.47 12.69 36.47 8.22"/><polygon class="cls-3" points="36.47 8.22 40.96 12.69 36.47 12.69 36.47 8.22"/><rect class="cls-4" x="32.98" y="12.69" width="3.49" height="6.99"/><rect class="cls-5" x="36.47" y="12.69" width="3.49" height="6.99"/><rect class="cls-2" x="35.48" y="14.19" width="0.99" height="1.49"/><rect class="cls-3" x="36.47" y="14.19" width="0.99" height="1.49"/><path class="cls-3" d="M36.47,17.19c.87,0,1.51.42,1.51,1v1.46H36.47Z"/><path class="cls-2" d="M36.47,17.19c-.87,0-1.51.42-1.51,1v1.46h1.51Z"/></svg>